<svg xmlns="http://www.w3.org/2000/svg" xmlns:xlink="http://www.w3.org/1999/xlink" width="518" zoomAndPan="magnify" viewBox="0 0 388.5 291.749991" height="389" preserveAspectRatio="xMidYMid meet" version="1.0"><defs><g/><clipPath id="38abc165df"><path d="M 0.679688 38.09375 L 269.898438 38.09375 L 269.898438 232.234375 L 0.679688 232.234375 Z M 0.679688 38.09375 " clip-rule="nonzero"/></clipPath><clipPath id="16fc8bb8af"><path d="M 25.398438 38.09375 L 244.601562 38.09375 C 258.253906 38.09375 269.320312 49.160156 269.320312 62.8125 L 269.320312 207.515625 C 269.320312 221.167969 258.253906 232.234375 244.601562 232.234375 L 25.398438 232.234375 C 11.746094 232.234375 0.679688 221.167969 0.679688 207.515625 L 0.679688 62.8125 C 0.679688 49.160156 11.746094 38.09375 25.398438 38.09375 Z M 25.398438 38.09375 " clip-rule="nonzero"/></clipPath><clipPath id="83afe00d13"><path d="M 0.679688 0.09375 L 269.378906 0.09375 L 269.378906 194.234375 L 0.679688 194.234375 Z M 0.679688 0.09375 " clip-rule="nonzero"/></clipPath><clipPath id="d895afe758"><path d="M 25.398438 0.09375 L 244.601562 0.09375 C 258.253906 0.09375 269.320312 11.160156 269.320312 24.8125 L 269.320312 169.515625 C 269.320312 183.167969 258.253906 194.234375 244.601562 194.234375 L 25.398438 194.234375 C 11.746094 194.234375 0.679688 183.167969 0.679688 169.515625 L 0.679688 24.8125 C 0.679688 11.160156 11.746094 0.09375 25.398438 0.09375 Z M 25.398438 0.09375 " clip-rule="nonzero"/></clipPath><clipPath id="486a3070a4"><rect x="0" width="270" y="0" height="195"/></clipPath><clipPath id="27882913e5"><path d="M 24 0.800781 L 174 0.800781 L 174 249.601562 L 24 249.601562 Z M 24 0.800781 " clip-rule="nonzero"/></clipPath><clipPath id="8b26bca72a"><rect x="0" width="150" y="0" height="250"/></clipPath><clipPath id="889f69399e"><path d="M 95 0.800781 L 252 0.800781 L 252 249.601562 L 95 249.601562 Z M 95 0.800781 " clip-rule="nonzero"/></clipPath><clipPath id="88c7c6f872"><rect x="0" width="157" y="0" height="250"/></clipPath><clipPath id="6aedd32ba7"><rect x="0" width="271" y="0" height="250"/></clipPath></defs><g transform="matrix(1, 0, 0, 1, 59, 17)"><g clip-path="url(#6aedd32ba7)"><g clip-path="url(#38abc165df)"><g clip-path="url(#16fc8bb8af)"><g transform="matrix(1, 0, 0, 1, 0, 38)"><g clip-path="url(#486a3070a4)"><g clip-path="url(#83afe00d13)"><g clip-path="url(#d895afe758)"><path fill="#716e35" d="M 0.679688 0.09375 L 269.136719 0.09375 L 269.136719 194.234375 L 0.679688 194.234375 Z M 0.679688 0.09375 " fill-opacity="1" fill-rule="nonzero"/></g></g></g></g></g></g><g clip-path="url(#27882913e5)"><g transform="matrix(1, 0, 0, 1, 24, 0.000000000000024869)"><g clip-path="url(#8b26bca72a)"><g fill="#f2e9e1" fill-opacity="1"><g transform="translate(0.853047, 185.531289)"><g><path d="M 87.9375 -59.375 L 22.90625 -97.3125 L 22.90625 -122.1875 L 132.046875 -59.375 L 22.90625 3.6875 L 22.90625 -21.671875 Z M 87.9375 -59.375 "/></g></g></g></g></g></g><g clip-path="url(#889f69399e)"><g transform="matrix(1, 0, 0, 1, 95, 0.000000000000024869)"><g clip-path="url(#88c7c6f872)"><g fill="#f2e9e1" fill-opacity="1"><g transform="translate(0.344696, 185.531289)"><g><path d="M 124.890625 -20.203125 L 124.890625 0 L 25.125 0 L 25.125 -20.203125 Z M 124.890625 -20.203125 "/></g></g></g></g></g></g></g></g></svg>